<svg width="503.8624267578125px" height="121.426220703125px" xmlns="http://www.w3.org/2000/svg" viewBox="-1.93121337890625 14.286889648437501 503.8624267578125 121.426220703125" style="background: none;" preserveAspectRatio="xMidYMid"><defs><filter id="editing-offset"><feFlood flood-color="#689cc5" flood-opacity="0.5" result="c1"></feFlood><feFlood flood-color="#93dbe9" flood-opacity="0.5" result="c2"></feFlood><feFlood flood-color="#203c8f" flood-opacity="0.5" result="c3"></feFlood><feComposite operator="in" in="c1" in2="SourceAlpha" result="text-c1"></feComposite><feComposite operator="in" in="c2" in2="SourceAlpha" result="text-c2"></feComposite><feComposite operator="in" in="c3" in2="SourceAlpha" result="text-c3"></feComposite><feOffset in="text-c1" dx="-10" dy="0" result="text1"></feOffset><feOffset in="text-c2" dx="10" dy="0" result="text2"></feOffset><feOffset in="text-c3" dx="0" dy="0" result="text3"></feOffset><feMerge><feMergeNode in="text1"></feMergeNode><feMergeNode in="text2"></feMergeNode><feMergeNode in="text3"></feMergeNode></feMerge></filter></defs><g filter="url(#editing-offset)"><g transform="translate(73.45625066757202, 104.29906272888184)"><path d="M30.91-4.38L30.91-4.38L30.91-4.38Q28.22-1.66 24.54-0.19L24.54-0.19L24.54-0.19Q20.86 1.28 17.22 1.28L17.22 1.28L17.22 1.28Q13.57 1.28 12.29 0.64L12.29 0.64L10.30 11.52L-2.69 12.80L6.14-32.64L16.58-33.73L15.74-29.31L15.74-29.31Q18.43-33.86 24-33.86L24-33.86L24-33.86Q30.27-33.86 33.60-29.82L33.60-29.82L33.60-29.82Q36.54-26.18 36.54-20.61L36.54-20.61L36.54-20.61Q36.54-15.04 35.07-11.07L35.07-11.07L35.07-11.07Q33.60-7.10 30.91-4.38ZM16.45-22.34L13.06-3.58L13.06-3.58Q14.40-2.43 16.06-2.43L16.06-2.43L16.06-2.43Q17.73-2.43 18.69-3.07L18.69-3.07L18.69-3.07Q19.65-3.71 20.35-4.99L20.35-4.99L20.35-4.99Q22.27-8.45 23.81-18.94L23.81-18.94L23.81-18.94Q24.26-22.02 24.26-25.02L24.26-25.02L24.26-25.02Q24.26-28.03 23.58-28.99L23.58-28.99L23.58-28.99Q22.91-29.95 21.63-29.95L21.63-29.95L21.63-29.95Q17.73-29.95 16.45-22.34L16.45-22.34ZM54.34 1.28L54.34 1.28L54.34 1.28Q40.26 1.28 40.26-11.97L40.26-11.97L40.26-11.97Q40.26-21.38 45.44-27.46L45.44-27.46L45.44-27.46Q50.94-33.92 60.48-33.92L60.48-33.92L60.48-33.92Q67.39-33.92 70.91-30.72L70.91-30.72L70.91-30.72Q74.43-27.52 74.43-20.80L74.43-20.80L74.43-20.80Q74.43-10.56 68.93-4.61L68.93-4.61L68.93-4.61Q63.55 1.28 54.34 1.28ZM56-26.56L56-26.56L56-26.56Q55.23-24.83 54.62-22.24L54.62-22.24L54.62-22.24Q54.02-19.65 53.25-15.55L53.25-15.55L53.25-15.55Q52.48-11.46 52.48-6.40L52.48-6.40L52.48-6.40Q52.48-4.74 53.02-3.65L53.02-3.65L53.02-3.65Q53.57-2.56 55.04-2.56L55.04-2.56L55.04-2.56Q56.51-2.56 57.44-3.26L57.44-3.26L57.44-3.26Q58.37-3.97 59.07-5.63L59.07-5.63L59.07-5.63Q60.35-8.58 61.38-14.05L61.38-14.05L61.38-14.05Q62.40-19.52 62.50-21.89L62.50-21.89L62.50-21.89Q62.59-24.26 62.59-26.02L62.59-26.02L62.59-26.02Q62.59-27.78 62.08-28.93L62.08-28.93L62.08-28.93Q61.57-30.08 60.13-30.08L60.13-30.08L60.13-30.08Q58.69-30.08 57.73-29.18L57.73-29.18L57.73-29.18Q56.77-28.29 56-26.56ZM104.13-10.82L104.13-10.82L104.13-10.82Q105.73-9.73 105.73-7.33L105.73-7.33L105.73-7.33Q105.73-4.93 104.51-3.39L104.51-3.39L104.51-3.39Q103.30-1.86 101.31-0.83L101.31-0.83L101.31-0.83Q97.22 1.28 92.80 1.28L92.80 1.28L92.80 1.28Q88.38 1.28 85.79 0.32L85.79 0.32L85.79 0.32Q83.20-0.64 81.47-2.43L81.47-2.43L81.47-2.43Q78.08-5.82 78.08-12.03L78.08-12.03L78.08-12.03Q78.08-21.70 83.33-27.58L83.33-27.58L83.33-27.58Q88.96-33.92 98.75-33.92L98.75-33.92L98.75-33.92Q104.83-33.92 107.84-31.36L107.84-31.36L107.84-31.36Q110.08-29.44 110.08-26.30L110.08-26.30L110.08-26.30Q110.08-15.04 90.62-15.04L90.62-15.04L90.62-15.04Q90.37-13.38 90.37-11.97L90.37-11.97L90.37-11.97Q90.37-9.02 91.68-7.90L91.68-7.90L91.68-7.90Q92.99-6.78 95.42-6.78L95.42-6.78L95.42-6.78Q97.86-6.78 100.45-7.90L100.45-7.90L100.45-7.90Q103.04-9.02 104.13-10.82ZM91.07-17.79L91.07-17.79L91.07-17.79Q95.62-17.79 98.24-20.61L98.24-20.61L98.24-20.61Q100.86-23.30 100.86-27.58L100.86-27.58L100.86-27.58Q100.86-29.06 100.32-29.86L100.32-29.86L100.32-29.86Q99.78-30.66 98.69-30.66L98.69-30.66L98.69-30.66Q97.60-30.66 96.67-30.24L96.67-30.24L96.67-30.24Q95.74-29.82 94.78-28.42L94.78-28.42L94.78-28.42Q92.42-25.22 91.07-17.79ZM132.42-33.92L132.42-33.92L132.42-33.92Q134.72-33.92 136.51-33.41L136.51-33.41L136.51-33.41Q136.58-33.66 136.70-34.37L136.70-34.37L137.02-36.35L137.02-36.35Q137.28-37.63 137.66-39.74L137.66-39.74L138.69-44.80L151.42-46.08L144.32-8.96L144.32-8.96Q144.26-8.58 144.26-7.94L144.26-7.94L144.26-6.91L144.26-6.91Q144.26-5.50 144.96-4.45L144.96-4.45L144.96-4.45Q145.66-3.39 146.82-3.39L146.82-3.39L146.82-3.39Q145.54-0.38 141.63 0.90L141.63 0.90L141.63 0.90Q140.29 1.28 138.40 1.28L138.40 1.28L138.40 1.28Q136.51 1.28 134.78 0.29L134.78 0.29L134.78 0.29Q133.06-0.70 132.54-2.37L132.54-2.37L132.54-2.37Q131.52-0.70 129.47 0.29L129.47 0.29L129.47 0.29Q127.42 1.28 124.45 1.28L124.45 1.28L124.45 1.28Q121.47 1.28 119.01 0.51L119.01 0.51L119.01 0.51Q116.54-0.26 115.01-1.92L115.01-1.92L115.01-1.92Q112.19-5.18 112.19-12.61L112.19-12.61L112.19-12.61Q112.19-22.21 117.82-28.03L117.82-28.03L117.82-28.03Q123.46-33.92 132.42-33.92ZM131.97-30.08L131.97-30.08L131.97-30.08Q129.60-30.08 128.32-27.52L128.32-27.52L128.32-27.52Q127.04-24.96 125.73-18.62L125.73-18.62L125.73-18.62Q124.42-12.29 124.42-6.59L124.42-6.59L124.42-6.59Q124.42-2.69 126.72-2.69L126.72-2.69L126.72-2.69Q128.77-2.69 130.21-4.74L130.21-4.74L130.21-4.74Q131.65-6.78 132.22-10.18L132.22-10.18L135.68-28.93L135.68-28.93Q134.34-30.08 131.97-30.08ZM167.62-3.52L167.62-3.52L167.62-3.52Q165.63 1.28 159.30 1.28L159.30 1.28L159.30 1.28Q156.03 1.28 153.98-0.96L153.98-0.96L153.98-0.96Q152.26-2.94 152.26-4.93L152.26-4.93L152.26-4.93Q152.26-10.11 154.62-20.22L154.62-20.22L156.99-32.64L169.98-33.92L166.08-13.70L166.08-13.70Q164.99-8.96 164.99-7.30L164.99-7.30L164.99-7.30Q164.99-3.65 167.62-3.52ZM158.14-41.54L158.14-41.54L158.14-41.54Q158.14-44.03 160.22-45.38L160.22-45.38L160.22-45.38Q162.30-46.72 165.31-46.72L165.31-46.72L165.31-46.72Q168.32-46.72 170.14-45.38L170.14-45.38L170.14-45.38Q171.97-44.03 171.97-41.54L171.97-41.54L171.97-41.54Q171.97-39.04 169.95-37.76L169.95-37.76L169.95-37.76Q167.94-36.48 164.93-36.48L164.93-36.48L164.93-36.48Q161.92-36.48 160.03-37.76L160.03-37.76L160.03-37.76Q158.14-39.04 158.14-41.54ZM174.08-6.40L174.08-6.40L174.08-6.40Q174.08-8.13 174.98-12.48L174.98-12.48L178.37-29.76L174.59-29.76L174.85-31.68L174.85-31.68Q182.53-33.98 189.95-39.62L189.95-39.62L193.02-39.62L191.49-32.64L196.48-32.64L195.90-29.76L190.98-29.76L187.71-12.48L187.71-12.48Q186.88-8.51 186.88-7.17L186.88-7.17L186.88-7.17Q186.88-4.10 189.57-3.46L189.57-3.46L189.57-3.46Q188.93-1.28 186.62 0L186.62 0L186.62 0Q184.32 1.28 181.06 1.28L181.06 1.28L181.06 1.28Q177.79 1.28 175.94-0.77L175.94-0.77L175.94-0.77Q174.08-2.82 174.08-6.40ZM209.86 1.28L209.86 1.28L209.86 1.28Q195.78 1.28 195.78-11.97L195.78-11.97L195.78-11.97Q195.78-21.38 200.96-27.46L200.96-27.46L200.96-27.46Q206.46-33.92 216-33.92L216-33.92L216-33.92Q222.91-33.92 226.43-30.72L226.43-30.72L226.43-30.72Q229.95-27.52 229.95-20.80L229.95-20.80L229.95-20.80Q229.95-10.56 224.45-4.61L224.45-4.61L224.45-4.61Q219.07 1.28 209.86 1.28ZM211.52-26.56L211.52-26.56L211.52-26.56Q210.75-24.83 210.14-22.24L210.14-22.24L210.14-22.24Q209.54-19.65 208.77-15.55L208.77-15.55L208.77-15.55Q208-11.46 208-6.40L208-6.40L208-6.40Q208-4.74 208.54-3.65L208.54-3.65L208.54-3.65Q209.09-2.56 210.56-2.56L210.56-2.56L210.56-2.56Q212.03-2.56 212.96-3.26L212.96-3.26L212.96-3.26Q213.89-3.97 214.59-5.63L214.59-5.63L214.59-5.63Q215.87-8.58 216.90-14.05L216.90-14.05L216.90-14.05Q217.92-19.52 218.02-21.89L218.02-21.89L218.02-21.89Q218.11-24.26 218.11-26.02L218.11-26.02L218.11-26.02Q218.11-27.78 217.60-28.93L217.60-28.93L217.60-28.93Q217.09-30.08 215.65-30.08L215.65-30.08L215.65-30.08Q214.21-30.08 213.25-29.18L213.25-29.18L213.25-29.18Q212.29-28.29 211.52-26.56ZM253.76-17.98L253.76-17.98L253.76-17.98Q256.06-22.08 256.06-26.24L256.06-26.24L256.06-26.24Q256.06-28.99 254.08-28.99L254.08-28.99L254.08-28.99Q252.54-28.99 250.94-26.37L250.94-26.37L250.94-26.37Q249.28-23.74 248.77-20.35L248.77-20.35L245.44 0L232.19 1.28L238.72-32.64L249.28-33.92L248.13-27.46L248.13-27.46Q251.26-33.92 258.30-33.92L258.30-33.92L258.30-33.92Q262.02-33.92 264.03-32L264.03-32L264.03-32Q266.05-30.08 266.05-26.14L266.05-26.14L266.05-26.14Q266.05-22.21 263.46-19.71L263.46-19.71L263.46-19.71Q260.86-17.22 256.45-17.22L256.45-17.22L256.45-17.22Q254.53-17.22 253.76-17.98ZM261.12-3.78L261.12-3.78L261.12-3.78Q261.12-6.21 263.01-7.55L263.01-7.55L263.01-7.55Q264.90-8.90 267.58-8.90L267.58-8.90L267.58-8.90Q270.27-8.90 271.90-7.55L271.90-7.55L271.90-7.55Q273.54-6.21 273.54-3.78L273.54-3.78L273.54-3.78Q273.54-1.34 271.71-0.03L271.71-0.03L271.71-0.03Q269.89 1.28 267.20 1.28L267.20 1.28L267.20 1.28Q264.51 1.28 262.82-0.03L262.82-0.03L262.82-0.03Q261.12-1.34 261.12-3.78ZM310.91-26.62L310.91-26.62L310.91-26.62Q310.91-23.94 308.67-22.27L308.67-22.27L308.67-22.27Q306.43-20.61 302.78-20.61L302.78-20.61L302.78-20.61Q301.25-20.61 300.35-21.06L300.35-21.06L300.35-21.06Q301.06-22.72 301.28-24.80L301.28-24.80L301.28-24.80Q301.50-26.88 301.50-27.46L301.50-27.46L301.50-27.46Q301.50-30.14 299.65-30.14L299.65-30.14L299.65-30.14Q298.37-30.14 296.93-28.54L296.93-28.54L296.93-28.54Q295.49-26.94 294.27-24.45L294.27-24.45L294.27-24.45Q291.58-18.69 291.58-12.86L291.58-12.86L291.58-12.86Q291.58-9.66 292.80-8.22L292.80-8.22L292.80-8.22Q294.02-6.78 296.70-6.78L296.70-6.78L296.70-6.78Q300.42-6.78 303.36-9.86L303.36-9.86L303.36-9.86Q304.19-10.82 304.64-11.90L304.64-11.90L304.64-11.90Q307.07-10.62 307.07-7.10L307.07-7.10L307.07-7.10Q307.07-3.52 303.10-1.15L303.10-1.15L303.10-1.15Q299.01 1.28 292.48 1.28L292.48 1.28L292.48 1.28Q279.49 1.28 279.49-12.48L279.49-12.48L279.49-12.48Q279.49-22.53 285.18-28.29L285.18-28.29L285.18-28.29Q290.69-33.92 300.80-33.92L300.80-33.92L300.80-33.92Q310.91-33.92 310.91-26.62ZM327.94-3.52L327.94-3.52L327.94-3.52Q325.95 1.28 319.62 1.28L319.62 1.28L319.62 1.28Q316.42 1.28 314.37-0.96L314.37-0.96L314.37-0.96Q312.70-2.82 312.70-4.93L312.70-4.93L312.70-4.93Q312.70-9.73 314.94-20.22L314.94-20.22L319.62-44.80L332.61-46.08L326.40-13.70L326.40-13.70Q325.31-8.96 325.31-7.30L325.31-7.30L325.31-7.30Q325.31-3.65 327.94-3.52ZM348.74-3.52L348.74-3.52L348.74-3.52Q346.75 1.28 340.42 1.28L340.42 1.28L340.42 1.28Q337.15 1.28 335.10-0.96L335.10-0.96L335.10-0.96Q333.38-2.94 333.38-4.93L333.38-4.93L333.38-4.93Q333.38-10.11 335.74-20.22L335.74-20.22L338.11-32.64L351.10-33.92L347.20-13.70L347.20-13.70Q346.11-8.96 346.11-7.30L346.11-7.30L346.11-7.30Q346.11-3.65 348.74-3.52ZM339.26-41.54L339.26-41.54L339.26-41.54Q339.26-44.03 341.34-45.38L341.34-45.38L341.34-45.38Q343.42-46.72 346.43-46.72L346.43-46.72L346.43-46.72Q349.44-46.72 351.26-45.38L351.26-45.38L351.26-45.38Q353.09-44.03 353.09-41.54L353.09-41.54L353.09-41.54Q353.09-39.04 351.07-37.76L351.07-37.76L351.07-37.76Q349.06-36.48 346.05-36.48L346.05-36.48L346.05-36.48Q343.04-36.48 341.15-37.76L341.15-37.76L341.15-37.76Q339.26-39.04 339.26-41.54Z"></path></g></g><style>text {
  font-size: 64px;
  font-family: Arial Black;
  dominant-baseline: central;
  text-anchor: middle;
}</style></svg>